<svg width="438" height="311" viewBox="0 0 438 311" fill="none" xmlns="http://www.w3.org/2000/svg">
<path d="M345.5 0.699982C306.4 5.39998 276.9 15.7 208.5 48.8C174.9 65 158.5 72.3 144.5 77.3C113.5 88.4 90.5999 92.6 65.9999 91.7C32.3999 90.5 13.7999 79.4 12.2999 59.6C11.5999 51.9 13.5999 44.7 18.4999 36.6C20.3999 33.4 21.8999 30.5 21.6999 30.3C20.7999 29.5 8.29994 43.9 5.79994 48.6C-2.50006 63.9 -1.10006 78.3 9.59994 89.9C21.5999 102.9 41.1999 109 70.5999 109C79.0999 109 90.9999 108.3 97.1999 107.4C120.2 104.2 149 95.4 177 83C183.3 80.3 188.8 78 189.2 78C189.6 78 190.1 118.2 190.3 167.2C190.6 249.6 190.7 257 192.4 262.5C196.8 277.3 207.8 291.9 220.7 300.1C226 303.4 241.9 311 243.6 311C243.8 311 244 259.3 244 196V81.1L246.9 79.6C249.6 78.1 250.3 78.3 262.1 83.4C289.3 95.2 310.1 100.6 331.6 101.7C362.8 103.1 381.1 95.6 394.1 75.7C397.6 70.2 402.9 57.2 404.5 50.2L405.2 47H347.7C301.3 47 288.6 47.3 281.7 48.5C266.1 51.2 250.1 57.2 234.3 66.2L227 70.4V176.7C227 236.5 226.6 283 226.1 283C224.7 283 217.5 274.7 214.5 269.6C212.9 266.9 210.7 261.8 209.6 258.1C207.6 251.7 207.6 248.9 207.2 160.2L206.9 68.9L224.7 60.4C295.9 26.1 331 15.8 371.4 17.3C393.9 18.1 406.7 22.1 416.7 31.3C423.8 37.8 425.5 41.9 425.5 52.6C425.5 61.2 425.3 62.1 421.4 69.9C419.2 74.4 417.8 77.9 418.4 77.7C420.8 76.9 431.3 63.2 434.3 57C437 51.3 437.4 49.5 437.5 42C437.5 31.9 435.5 26.7 429 19.6C421 10.9 409.7 5.4 392.8 2C385.2 0.4 379.6 6.10203e-06 365.8 0.100006C356.3 0.200006 347.2 0.499982 345.5 0.699982ZM380 64.9C380 66.2 374.8 72.5 371.3 75.4C355 89.1 321.3 88 282 72.7L271.5 68.6L276 67.3C278.5 66.5 282.8 65.6 285.5 65.1C292.1 64 380 63.7 380 64.9Z" fill="#EFF6EE"/>
<path d="M97.5 6.99895C75.3 9.49895 58.7 19.499 49.3 35.999C46.4 41.099 40 58.199 40 60.999C40 61.799 54.1 61.999 96.8 61.799L153.5 61.399L163.3 58.699C174.3 55.799 189.9 48.599 202.8 40.799L211.3 35.499L197.8 28.999C175.9 18.399 156.6 11.999 137 8.59895C125.6 6.69895 107.3 5.89895 97.5 6.99895ZM124.5 24.499C128.9 24.799 136.3 25.899 141 26.999C151.2 29.399 171 35.999 171 36.999C171 37.399 167.3 38.999 162.8 40.599L154.5 43.499L110.3 43.799C79.3 43.999 66 43.799 66 42.999C66 41.199 74.2 32.999 78.4 30.499C80.7 29.199 85.2 27.399 88.5 26.399C94.4 24.699 109.1 23.099 114 23.599C115.4 23.799 120.1 24.199 124.5 24.499Z" fill="#EFF6EE"/>
</svg>
