<svg width="563" height="400" viewBox="0 0 563 400" fill="none" xmlns="http://www.w3.org/2000/svg">
<path d="M443.927 0.790375C393.624 6.83707 355.671 20.0883 267.673 62.6724C224.445 83.5141 203.346 92.9058 185.335 99.3384C145.453 113.619 115.991 119.022 84.3426 117.864C41.1152 116.321 17.1858 102.04 15.256 76.5669C14.3555 66.6606 16.9285 57.3976 23.2325 46.9767C25.6769 42.8599 27.6067 39.1289 27.3494 38.8716C26.1915 37.8424 10.1099 56.3684 6.89359 62.4151C-3.78459 82.099 -1.98345 100.625 11.7824 115.549C27.2207 132.274 52.4367 140.121 90.2606 140.121C101.196 140.121 116.506 139.221 124.482 138.063C154.072 133.946 191.124 122.625 227.147 106.672C235.252 103.198 242.328 100.239 242.843 100.239C243.357 100.239 244.001 151.957 244.258 214.997C244.644 321.007 244.773 330.527 246.96 337.603C252.62 356.644 266.772 375.427 283.368 385.977C290.187 390.222 310.643 400 312.83 400C313.087 400 313.345 333.487 313.345 252.049V104.227L317.075 102.297C320.549 100.368 321.45 100.625 336.631 107.186C371.624 122.367 398.384 129.315 426.044 130.73C466.184 132.531 489.728 122.882 506.452 97.28C510.955 90.2041 517.774 73.4792 519.832 64.4735L520.733 60.3566H446.757C387.063 60.3566 370.724 60.7426 361.847 62.2864C341.777 65.7601 321.192 73.4792 300.865 85.058L291.474 90.4614V227.219C291.474 304.154 290.959 363.977 290.316 363.977C288.515 363.977 279.252 353.299 275.392 346.738C273.334 343.264 270.503 336.703 269.088 331.943C266.515 323.709 266.515 320.107 266 205.992L265.614 88.5316L288.515 77.5961C380.115 33.4682 425.272 20.2169 477.248 22.1468C506.195 23.176 522.663 28.3221 535.528 40.1581C544.662 48.5206 546.849 53.7953 546.849 67.5612C546.849 78.6253 546.592 79.7832 541.575 89.8181C538.744 95.6075 536.943 100.11 537.715 99.8531C540.803 98.8238 554.311 81.1984 558.171 73.2219C561.644 65.8887 562.159 63.573 562.288 53.924C562.288 40.9301 559.715 34.2401 551.352 25.1058C541.06 13.913 526.522 6.8371 504.78 2.46289C495.002 0.404449 487.798 -0.110168 470.044 0.0184937C457.822 0.147156 446.114 0.533081 443.927 0.790375ZM488.312 83.3855C488.312 85.058 481.622 93.1631 477.12 96.894C456.149 114.519 412.793 113.104 362.233 93.4204L348.724 88.1456L354.513 86.4732C357.73 85.4439 363.262 84.286 366.735 83.6428C375.227 82.2276 488.312 81.8416 488.312 83.3855Z" fill="#322659"/>
<path d="M124.869 8.89423C96.308 12.1105 74.9516 24.9758 62.8583 46.2035C59.1273 52.7648 50.8936 74.7645 50.8936 78.3667C50.8936 79.396 69.0336 79.6533 123.968 79.396L196.914 78.8814L209.522 75.4077C223.674 71.6768 243.744 62.4138 260.34 52.3789L271.276 45.5603L253.908 37.1978C225.733 23.5606 200.903 15.3269 175.687 10.9527C161.02 8.50827 137.477 7.47905 124.869 8.89423ZM159.605 31.4085C165.266 31.7944 174.786 33.2096 180.833 34.6248C193.955 37.7125 219.429 46.2035 219.429 47.4901C219.429 48.0047 214.669 50.0631 208.879 52.1216L198.201 55.8525L141.336 56.2385C101.454 56.4958 84.3433 56.2385 84.3433 55.2092C84.3433 52.8935 94.8928 42.344 100.296 39.1276C103.255 37.4552 109.045 35.1394 113.29 33.8529C120.881 31.6658 139.793 29.6073 146.097 30.2506C147.898 30.5079 153.944 31.0225 159.605 31.4085Z" fill="#322659"/>
</svg>
